<svg width="41" height="42" viewBox="0 0 41 42">
  <defs>
    <style>
      .building-small {
        fill: #424242;
        fill-rule: evenodd;
      }
    </style>
  </defs>
  <path d="M40.502,9.532 L32.445,6.882 C32.445,6.881 32.444,6.881 32.442,6.881 L32.443,6.881 C32.443,6.881 32.314,6.831 32.133,6.850 C31.952,6.870 31.824,6.964 31.824,6.964 L27.308,9.917 C27.104,10.050 26.980,10.278 26.980,10.524 L26.980,18.613 L26.731,18.594 L26.731,5.527 C26.731,5.213 26.530,4.936 26.234,4.839 L11.629,0.034 C11.629,0.034 11.460,-0.019 11.304,0.006 C11.116,0.036 10.980,0.135 10.980,0.135 L0.304,7.760 C0.113,7.895 -0.000,8.114 -0.000,8.349 L-0.000,35.414 C-0.000,35.679 0.144,35.922 0.375,36.048 L11.055,41.909 C11.055,41.909 11.165,41.974 11.317,41.993 C11.469,42.011 11.579,41.977 11.579,41.977 L26.184,38.286 L32.397,36.715 L40.452,34.679 C40.772,34.598 40.997,34.309 40.997,33.977 L40.999,10.221 C41.000,9.906 40.798,9.629 40.502,9.532 ZM2.179,31.995 C2.179,32.074 2.141,32.148 2.076,32.192 C2.035,32.221 1.987,32.237 1.939,32.237 C1.910,32.237 1.883,32.232 1.855,32.221 L1.231,31.992 C1.137,31.957 1.073,31.866 1.073,31.765 L1.073,29.778 C1.073,29.704 1.109,29.631 1.168,29.587 C1.228,29.540 1.306,29.525 1.379,29.545 L2.002,29.718 C2.106,29.748 2.178,29.844 2.178,29.951 L2.178,31.995 L2.179,31.995 ZM2.179,27.910 C2.179,27.981 2.148,28.049 2.092,28.095 C2.048,28.131 1.994,28.151 1.938,28.151 C1.923,28.151 1.909,28.149 1.894,28.146 L1.270,28.029 C1.156,28.007 1.073,27.907 1.073,27.791 L1.073,25.804 C1.073,25.736 1.101,25.672 1.152,25.625 C1.203,25.579 1.270,25.557 1.338,25.565 L1.961,25.625 C2.084,25.638 2.178,25.741 2.178,25.866 L2.178,27.910 L2.179,27.910 ZM2.179,23.823 C2.179,23.888 2.154,23.951 2.109,23.995 C2.063,24.040 2.002,24.065 1.939,24.065 C1.938,24.065 1.937,24.065 1.937,24.065 L1.313,24.060 C1.181,24.059 1.073,23.952 1.073,23.818 L1.073,21.832 C1.073,21.706 1.170,21.601 1.295,21.591 L1.918,21.540 C1.986,21.534 2.051,21.557 2.101,21.602 C2.151,21.648 2.179,21.712 2.179,21.780 L2.179,23.823 ZM2.179,19.738 C2.179,19.855 2.094,19.955 1.979,19.976 L1.355,20.084 C1.341,20.087 1.328,20.087 1.314,20.087 C1.257,20.087 1.203,20.068 1.159,20.031 C1.105,19.985 1.073,19.917 1.073,19.845 L1.073,17.859 C1.073,17.749 1.147,17.655 1.252,17.626 L1.876,17.461 C1.949,17.442 2.026,17.458 2.084,17.504 C2.143,17.549 2.177,17.619 2.177,17.694 L2.177,19.738 L2.179,19.738 ZM2.179,15.653 C2.179,15.755 2.115,15.847 2.018,15.880 L1.395,16.101 C1.369,16.110 1.342,16.114 1.314,16.114 C1.264,16.114 1.216,16.100 1.175,16.071 C1.112,16.025 1.073,15.952 1.073,15.873 L1.073,13.886 C1.073,13.792 1.130,13.705 1.217,13.665 L1.841,13.389 C1.915,13.355 2.001,13.362 2.070,13.408 C2.138,13.453 2.179,13.529 2.179,13.610 L2.179,15.653 ZM2.179,11.567 C2.179,11.657 2.130,11.737 2.051,11.781 L1.428,12.113 C1.392,12.132 1.353,12.142 1.314,12.142 C1.271,12.142 1.228,12.129 1.189,12.107 C1.117,12.064 1.073,11.986 1.073,11.900 L1.073,9.914 C1.073,9.830 1.115,9.752 1.186,9.709 L1.810,9.320 C1.885,9.274 1.977,9.271 2.054,9.314 C2.131,9.357 2.178,9.437 2.178,9.524 L2.178,11.567 L2.179,11.567 ZM4.282,32.770 C4.282,32.849 4.244,32.923 4.180,32.968 C4.139,32.996 4.090,33.012 4.041,33.012 C4.014,33.012 3.986,33.008 3.959,32.996 L3.215,32.722 C3.121,32.687 3.057,32.597 3.057,32.496 L3.057,30.330 C3.057,30.255 3.092,30.184 3.152,30.138 C3.212,30.092 3.289,30.078 3.362,30.097 L4.105,30.305 C4.209,30.333 4.282,30.429 4.282,30.537 L4.282,32.770 L4.282,32.770 ZM4.282,28.305 C4.282,28.376 4.250,28.445 4.195,28.491 C4.151,28.526 4.097,28.546 4.041,28.546 C4.025,28.546 4.011,28.544 3.996,28.542 L3.254,28.402 C3.139,28.381 3.056,28.281 3.056,28.164 L3.056,26.000 C3.056,25.932 3.085,25.866 3.136,25.821 C3.187,25.775 3.254,25.752 3.321,25.759 L4.065,25.832 C4.189,25.844 4.282,25.948 4.282,26.073 L4.282,28.305 ZM4.282,23.841 C4.282,23.904 4.257,23.967 4.211,24.011 C4.166,24.056 4.105,24.081 4.041,24.081 C4.041,24.081 4.041,24.081 4.040,24.081 L3.297,24.076 C3.165,24.075 3.057,23.967 3.057,23.833 L3.057,21.669 C3.057,21.543 3.153,21.439 3.279,21.428 L4.022,21.367 C4.089,21.361 4.155,21.384 4.205,21.430 C4.255,21.475 4.282,21.540 4.282,21.607 L4.282,23.841 ZM4.282,19.374 C4.282,19.492 4.198,19.593 4.083,19.613 L3.339,19.740 C3.325,19.744 3.311,19.744 3.298,19.744 C3.242,19.744 3.187,19.724 3.142,19.687 C3.088,19.641 3.056,19.574 3.056,19.502 L3.056,17.337 C3.056,17.227 3.130,17.131 3.236,17.103 L3.979,16.907 C4.051,16.888 4.129,16.904 4.187,16.951 C4.246,16.996 4.281,17.066 4.281,17.142 L4.281,19.374 L4.282,19.374 ZM4.282,14.909 C4.282,15.012 4.218,15.103 4.121,15.137 L3.378,15.400 C3.353,15.409 3.325,15.414 3.298,15.414 C3.248,15.414 3.200,15.399 3.159,15.370 C3.095,15.324 3.057,15.250 3.057,15.172 L3.057,13.007 C3.057,12.912 3.112,12.825 3.201,12.786 L3.943,12.457 C4.018,12.424 4.105,12.431 4.173,12.475 C4.241,12.519 4.282,12.596 4.282,12.677 L4.282,14.909 ZM4.282,10.445 C4.282,10.534 4.233,10.616 4.155,10.658 L3.412,11.054 C3.377,11.073 3.337,11.083 3.299,11.083 C3.255,11.083 3.212,11.070 3.174,11.048 C3.102,11.004 3.057,10.926 3.057,10.842 L3.057,8.677 C3.057,8.594 3.100,8.515 3.170,8.471 L3.914,8.007 C3.989,7.961 4.082,7.958 4.158,8.001 C4.235,8.044 4.282,8.124 4.282,8.212 L4.282,10.445 ZM6.817,33.703 C6.817,33.783 6.778,33.856 6.714,33.901 C6.673,33.930 6.624,33.945 6.577,33.945 C6.548,33.945 6.521,33.940 6.493,33.930 L5.593,33.599 C5.498,33.563 5.434,33.473 5.434,33.372 L5.434,30.992 C5.434,30.917 5.469,30.845 5.529,30.800 C5.588,30.754 5.667,30.740 5.739,30.760 L6.640,31.010 C6.744,31.038 6.816,31.134 6.816,31.242 L6.816,33.703 L6.817,33.703 ZM6.817,28.781 C6.817,28.853 6.785,28.921 6.729,28.967 C6.686,29.003 6.631,29.022 6.576,29.022 C6.561,29.022 6.546,29.021 6.531,29.018 L5.630,28.849 C5.516,28.828 5.434,28.728 5.434,28.611 L5.434,26.232 C5.434,26.164 5.462,26.099 5.512,26.053 C5.563,26.007 5.631,25.985 5.698,25.991 L6.598,26.080 C6.722,26.092 6.816,26.196 6.816,26.321 L6.816,28.781 L6.817,28.781 ZM6.817,23.859 C6.817,23.923 6.792,23.986 6.745,24.030 C6.701,24.075 6.639,24.100 6.577,24.100 C6.576,24.100 6.575,24.100 6.574,24.100 L5.674,24.092 C5.542,24.091 5.435,23.984 5.435,23.852 L5.435,21.470 C5.435,21.345 5.531,21.241 5.656,21.230 L6.557,21.156 C6.624,21.150 6.690,21.173 6.740,21.219 C6.790,21.265 6.818,21.329 6.818,21.396 L6.818,23.859 L6.817,23.859 ZM6.817,18.936 C6.817,19.053 6.732,19.154 6.617,19.174 L5.716,19.330 C5.702,19.333 5.689,19.334 5.675,19.334 C5.618,19.334 5.563,19.315 5.519,19.278 C5.465,19.232 5.434,19.165 5.434,19.093 L5.434,16.713 C5.434,16.603 5.507,16.509 5.613,16.481 L6.513,16.242 C6.586,16.224 6.663,16.239 6.721,16.285 C6.780,16.331 6.816,16.401 6.816,16.477 L6.816,18.936 L6.817,18.936 ZM6.817,14.014 C6.817,14.117 6.753,14.208 6.656,14.242 L5.755,14.560 C5.729,14.569 5.702,14.574 5.675,14.574 C5.625,14.574 5.577,14.558 5.535,14.529 C5.472,14.484 5.434,14.411 5.434,14.332 L5.434,11.952 C5.434,11.856 5.490,11.770 5.577,11.732 L6.478,11.332 C6.553,11.299 6.639,11.306 6.707,11.350 C6.776,11.395 6.817,11.472 6.817,11.553 L6.817,14.014 L6.817,14.014 ZM6.817,9.092 C6.817,9.181 6.768,9.263 6.689,9.305 L5.788,9.785 C5.752,9.804 5.714,9.813 5.675,9.813 C5.632,9.813 5.588,9.801 5.551,9.779 C5.478,9.735 5.434,9.657 5.434,9.573 L5.434,7.192 C5.434,7.109 5.476,7.032 5.547,6.987 L6.447,6.425 C6.523,6.380 6.616,6.378 6.693,6.420 C6.770,6.462 6.817,6.544 6.817,6.631 L6.817,9.092 ZM9.929,34.849 C9.929,34.929 9.891,35.003 9.827,35.048 C9.785,35.076 9.737,35.092 9.689,35.092 C9.661,35.092 9.633,35.086 9.606,35.076 L8.492,34.666 C8.397,34.632 8.334,34.540 8.334,34.439 L8.334,31.798 C8.334,31.723 8.369,31.652 8.428,31.606 C8.488,31.560 8.566,31.546 8.638,31.566 L9.752,31.875 C9.856,31.904 9.929,31.999 9.929,32.108 L9.929,34.849 L9.929,34.849 ZM9.929,29.365 C9.929,29.438 9.897,29.505 9.842,29.552 C9.798,29.588 9.744,29.607 9.688,29.607 C9.672,29.607 9.658,29.605 9.643,29.602 L8.529,29.394 C8.416,29.373 8.333,29.273 8.333,29.156 L8.333,26.515 C8.333,26.447 8.362,26.382 8.412,26.336 C8.462,26.290 8.530,26.269 8.597,26.275 L9.711,26.384 C9.835,26.397 9.929,26.499 9.929,26.624 L9.929,29.365 L9.929,29.365 ZM9.929,23.883 C9.929,23.947 9.905,24.009 9.858,24.054 C9.813,24.099 9.752,24.124 9.689,24.124 C9.689,24.124 9.688,24.124 9.687,24.124 L8.573,24.115 C8.441,24.114 8.334,24.007 8.334,23.874 L8.334,21.231 C8.334,21.105 8.429,21.001 8.555,20.990 L9.668,20.899 C9.737,20.892 9.802,20.915 9.852,20.961 C9.901,21.007 9.929,21.072 9.929,21.138 L9.929,23.883 L9.929,23.883 ZM9.929,18.398 C9.929,18.516 9.845,18.616 9.729,18.637 L8.616,18.829 C8.602,18.831 8.588,18.832 8.574,18.832 C8.519,18.832 8.462,18.813 8.419,18.776 C8.364,18.730 8.333,18.662 8.333,18.592 L8.333,15.950 C8.333,15.840 8.406,15.745 8.512,15.716 L9.626,15.424 C9.698,15.405 9.775,15.420 9.834,15.466 C9.893,15.512 9.929,15.582 9.929,15.657 L9.929,18.398 L9.929,18.398 ZM9.929,12.915 C9.929,13.016 9.865,13.109 9.768,13.142 L8.654,13.536 C8.628,13.544 8.601,13.550 8.574,13.550 C8.525,13.550 8.477,13.534 8.436,13.505 C8.371,13.460 8.334,13.387 8.334,13.308 L8.334,10.667 C8.334,10.572 8.389,10.484 8.477,10.446 L9.590,9.951 C9.665,9.918 9.752,9.925 9.820,9.970 C9.888,10.014 9.929,10.091 9.929,10.172 L9.929,12.915 ZM9.929,7.431 C9.929,7.520 9.880,7.601 9.801,7.644 L8.687,8.238 C8.653,8.257 8.613,8.266 8.574,8.266 C8.531,8.266 8.488,8.255 8.450,8.232 C8.378,8.188 8.333,8.109 8.333,8.025 L8.333,5.383 C8.333,5.300 8.376,5.222 8.446,5.178 L9.560,4.483 C9.634,4.436 9.729,4.434 9.805,4.477 C9.880,4.520 9.929,4.600 9.929,4.688 L9.929,7.431 L9.929,7.431 ZM15.845,34.768 C15.845,34.887 15.760,34.986 15.644,35.007 L13.073,35.443 C13.059,35.444 13.047,35.447 13.033,35.447 C12.977,35.447 12.921,35.427 12.877,35.389 C12.823,35.343 12.791,35.277 12.791,35.206 L12.791,32.376 C12.791,32.254 12.881,32.153 13.001,32.138 L15.572,31.809 C15.640,31.799 15.710,31.821 15.762,31.866 C15.815,31.912 15.844,31.977 15.844,32.047 L15.844,34.768 L15.845,34.768 ZM15.845,29.325 C15.845,29.450 15.750,29.554 15.625,29.564 L13.054,29.787 C13.047,29.788 13.040,29.788 13.033,29.788 C12.973,29.788 12.915,29.766 12.870,29.725 C12.820,29.678 12.791,29.614 12.791,29.547 L12.791,26.741 C12.791,26.611 12.892,26.505 13.022,26.499 L15.593,26.382 C15.660,26.378 15.722,26.402 15.769,26.448 C15.817,26.494 15.844,26.557 15.844,26.622 L15.844,29.325 L15.845,29.325 ZM15.845,23.881 C15.845,24.014 15.737,24.122 15.604,24.123 L13.034,24.132 C13.033,24.132 13.033,24.132 13.033,24.132 C12.969,24.132 12.907,24.107 12.863,24.061 C12.817,24.016 12.792,23.955 12.792,23.891 L12.792,21.061 C12.792,20.996 12.819,20.934 12.866,20.888 C12.914,20.842 12.977,20.818 13.042,20.821 L15.613,20.918 C15.743,20.923 15.845,21.030 15.845,21.159 L15.845,23.881 ZM15.845,18.436 C15.845,18.503 15.817,18.569 15.768,18.613 C15.722,18.655 15.664,18.678 15.603,18.678 C15.597,18.678 15.591,18.677 15.585,18.677 L13.014,18.472 C12.889,18.462 12.792,18.358 12.792,18.231 L12.792,15.403 C12.792,15.334 12.822,15.268 12.873,15.222 C12.925,15.175 12.994,15.154 13.063,15.163 L15.633,15.475 C15.754,15.490 15.845,15.593 15.845,15.714 L15.845,18.436 L15.845,18.436 ZM15.845,12.993 C15.845,13.064 15.814,13.132 15.760,13.177 C15.716,13.214 15.660,13.234 15.603,13.234 C15.590,13.234 15.578,13.234 15.565,13.232 L12.994,12.813 C12.877,12.794 12.791,12.693 12.791,12.574 L12.791,9.746 C12.791,9.673 12.824,9.605 12.881,9.559 C12.936,9.513 13.009,9.495 13.081,9.509 L15.652,10.034 C15.764,10.057 15.845,10.156 15.845,10.270 L15.845,12.993 ZM15.845,7.549 C15.845,7.623 15.811,7.693 15.752,7.740 C15.710,7.772 15.656,7.791 15.603,7.791 C15.585,7.791 15.565,7.788 15.546,7.784 L12.976,7.152 C12.868,7.125 12.792,7.028 12.792,6.917 L12.792,4.087 C12.792,4.011 12.828,3.941 12.888,3.894 C12.948,3.848 13.026,3.834 13.099,3.855 L15.669,4.594 C15.773,4.623 15.844,4.718 15.844,4.826 L15.844,7.549 L15.845,7.549 ZM20.445,33.989 C20.445,34.106 20.359,34.207 20.243,34.227 L18.027,34.603 C18.014,34.605 18.000,34.605 17.987,34.605 C17.931,34.605 17.875,34.587 17.832,34.549 C17.777,34.504 17.745,34.436 17.745,34.365 L17.745,31.742 C17.745,31.621 17.835,31.518 17.956,31.502 L20.171,31.218 C20.240,31.209 20.309,31.231 20.362,31.276 C20.413,31.323 20.444,31.388 20.444,31.457 L20.444,33.989 L20.445,33.989 ZM20.445,28.926 C20.445,29.052 20.349,29.157 20.224,29.166 L18.008,29.358 C18.001,29.359 17.994,29.359 17.988,29.359 C17.928,29.359 17.869,29.337 17.825,29.296 C17.775,29.250 17.746,29.186 17.746,29.118 L17.746,26.496 C17.746,26.367 17.848,26.260 17.977,26.254 L20.193,26.155 C20.257,26.151 20.323,26.175 20.370,26.221 C20.418,26.268 20.445,26.330 20.445,26.396 L20.445,28.926 ZM20.445,23.865 C20.445,23.997 20.337,24.106 20.204,24.107 L17.988,24.114 L17.987,24.114 C17.924,24.114 17.862,24.090 17.817,24.045 C17.771,23.999 17.745,23.937 17.745,23.874 L17.745,21.249 C17.745,21.184 17.772,21.120 17.819,21.076 C17.866,21.030 17.931,21.005 17.996,21.009 L20.211,21.093 C20.341,21.098 20.444,21.204 20.444,21.335 L20.444,23.865 L20.445,23.865 ZM20.445,18.802 C20.445,18.870 20.416,18.934 20.367,18.980 C20.321,19.021 20.263,19.043 20.203,19.043 C20.196,19.043 20.189,19.043 20.183,19.043 L17.967,18.866 C17.841,18.856 17.745,18.752 17.745,18.625 L17.745,16.004 C17.745,15.934 17.775,15.869 17.827,15.824 C17.879,15.777 17.947,15.756 18.015,15.764 L20.231,16.033 C20.353,16.049 20.444,16.150 20.444,16.273 L20.444,18.802 L20.445,18.802 ZM20.445,13.740 C20.445,13.811 20.413,13.878 20.359,13.925 C20.315,13.963 20.260,13.981 20.203,13.981 C20.189,13.981 20.177,13.980 20.164,13.978 L17.949,13.618 C17.832,13.600 17.745,13.498 17.745,13.380 L17.745,10.756 C17.745,10.684 17.778,10.614 17.834,10.569 C17.890,10.524 17.965,10.505 18.035,10.519 L20.251,10.972 C20.363,10.994 20.445,11.094 20.445,11.209 L20.445,13.740 ZM20.445,8.679 C20.445,8.753 20.411,8.823 20.353,8.869 C20.309,8.902 20.256,8.920 20.204,8.920 C20.184,8.920 20.165,8.919 20.146,8.914 L17.930,8.369 C17.822,8.343 17.746,8.245 17.746,8.134 L17.746,5.511 C17.746,5.435 17.782,5.364 17.842,5.318 C17.902,5.273 17.981,5.258 18.053,5.279 L20.269,5.916 C20.372,5.946 20.444,6.040 20.444,6.149 L20.444,8.679 L20.445,8.679 ZM24.441,33.310 C24.441,33.428 24.356,33.528 24.240,33.549 L22.310,33.875 C22.295,33.878 22.283,33.879 22.269,33.879 C22.213,33.879 22.157,33.860 22.113,33.823 C22.059,33.776 22.028,33.709 22.028,33.638 L22.028,31.193 C22.028,31.071 22.118,30.970 22.237,30.954 L24.168,30.707 C24.236,30.698 24.305,30.719 24.358,30.764 C24.410,30.811 24.440,30.876 24.440,30.945 L24.440,33.310 L24.441,33.310 ZM24.441,28.580 C24.441,28.706 24.345,28.810 24.220,28.820 L22.290,28.988 C22.283,28.988 22.276,28.988 22.269,28.988 C22.209,28.988 22.151,28.966 22.105,28.925 C22.055,28.880 22.028,28.815 22.028,28.748 L22.028,26.303 C22.028,26.175 22.129,26.067 22.258,26.062 L24.188,25.976 C24.253,25.972 24.318,25.996 24.365,26.041 C24.413,26.087 24.440,26.151 24.440,26.216 L24.440,28.580 L24.441,28.580 ZM24.441,23.850 C24.441,23.983 24.334,24.090 24.200,24.092 L22.270,24.099 C22.270,24.099 22.270,24.099 22.269,24.099 C22.205,24.099 22.144,24.074 22.099,24.029 C22.054,23.983 22.029,23.923 22.029,23.859 L22.029,21.413 C22.029,21.347 22.054,21.284 22.103,21.240 C22.150,21.194 22.212,21.170 22.278,21.173 L24.209,21.246 C24.337,21.250 24.441,21.357 24.441,21.486 L24.441,23.850 ZM24.441,19.120 C24.441,19.188 24.413,19.253 24.363,19.299 C24.318,19.340 24.260,19.362 24.199,19.362 C24.193,19.362 24.186,19.362 24.180,19.362 L22.250,19.207 C22.125,19.197 22.029,19.092 22.029,18.967 L22.029,16.522 C22.029,16.453 22.058,16.388 22.110,16.341 C22.161,16.296 22.230,16.275 22.299,16.284 L24.228,16.517 C24.350,16.532 24.441,16.635 24.441,16.758 L24.441,19.120 L24.441,19.120 ZM24.441,14.391 C24.441,14.462 24.409,14.529 24.356,14.575 C24.311,14.612 24.256,14.632 24.199,14.632 C24.186,14.632 24.174,14.632 24.160,14.629 L22.230,14.314 C22.113,14.295 22.028,14.194 22.028,14.076 L22.028,11.631 C22.028,11.559 22.060,11.490 22.116,11.443 C22.173,11.398 22.246,11.380 22.318,11.395 L24.248,11.788 C24.359,11.811 24.441,11.911 24.441,12.025 L24.441,14.391 L24.441,14.391 ZM24.441,9.661 C24.441,9.735 24.407,9.806 24.348,9.851 C24.305,9.886 24.253,9.903 24.199,9.903 C24.180,9.903 24.160,9.901 24.142,9.896 L22.212,9.422 C22.104,9.396 22.029,9.299 22.029,9.188 L22.029,6.742 C22.029,6.666 22.064,6.595 22.124,6.549 C22.184,6.504 22.262,6.489 22.336,6.509 L24.266,7.065 C24.368,7.095 24.440,7.190 24.440,7.298 L24.440,9.661 L24.441,9.661 ZM32.461,36.013 C32.461,36.124 32.386,36.219 32.279,36.247 L26.066,37.818 C26.047,37.822 26.027,37.825 26.008,37.825 C25.954,37.825 25.902,37.807 25.860,37.774 C25.801,37.728 25.767,37.658 25.767,37.583 L25.767,23.845 C25.767,23.821 25.804,21.309 29.311,21.441 C32.426,21.558 32.462,23.801 32.462,23.823 L32.462,36.013 L32.461,36.013 ZM35.070,31.507 C35.070,31.626 34.984,31.725 34.869,31.745 L33.601,31.960 C33.587,31.964 33.574,31.964 33.560,31.964 C33.504,31.964 33.448,31.945 33.405,31.908 C33.350,31.861 33.319,31.794 33.319,31.722 L33.319,29.746 C33.319,29.625 33.409,29.522 33.529,29.507 L34.798,29.344 C34.866,29.334 34.935,29.356 34.988,29.401 C35.040,29.448 35.070,29.513 35.070,29.583 L35.070,31.507 L35.070,31.507 ZM35.070,27.661 C35.070,27.786 34.975,27.890 34.850,27.900 L33.581,28.010 C33.573,28.011 33.566,28.011 33.560,28.011 C33.500,28.011 33.442,27.989 33.397,27.948 C33.347,27.902 33.319,27.838 33.319,27.771 L33.319,25.794 C33.319,25.665 33.420,25.559 33.549,25.553 L34.818,25.496 C34.883,25.492 34.949,25.517 34.995,25.562 C35.043,25.609 35.070,25.671 35.070,25.737 L35.070,27.661 ZM35.070,23.798 C35.070,23.932 34.962,24.040 34.830,24.040 L33.561,24.045 C33.561,24.045 33.561,24.045 33.560,24.045 C33.497,24.045 33.435,24.019 33.391,23.974 C33.345,23.928 33.320,23.867 33.320,23.803 L33.320,21.843 C33.320,21.778 33.346,21.715 33.393,21.669 C33.440,21.623 33.504,21.600 33.570,21.602 L34.838,21.652 C34.967,21.656 35.071,21.762 35.071,21.892 L35.071,23.798 L35.070,23.798 ZM35.070,19.967 C35.070,20.034 35.041,20.099 34.992,20.144 C34.947,20.185 34.889,20.208 34.828,20.208 C34.822,20.208 34.815,20.207 34.809,20.207 L33.540,20.106 C33.415,20.096 33.319,19.992 33.319,19.865 L33.319,17.889 C33.319,17.820 33.349,17.755 33.400,17.709 C33.452,17.663 33.521,17.641 33.589,17.651 L34.858,17.804 C34.979,17.819 35.070,17.921 35.070,18.044 L35.070,19.967 L35.070,19.967 ZM35.070,16.121 C35.070,16.192 35.039,16.259 34.984,16.305 C34.941,16.343 34.885,16.362 34.828,16.362 C34.815,16.362 34.802,16.361 34.790,16.359 L33.521,16.153 C33.404,16.134 33.318,16.033 33.318,15.915 L33.318,13.938 C33.318,13.866 33.350,13.798 33.407,13.752 C33.463,13.705 33.537,13.688 33.608,13.701 L34.876,13.960 C34.989,13.984 35.070,14.082 35.070,14.197 L35.070,16.121 ZM35.070,12.274 C35.070,12.348 35.036,12.419 34.978,12.464 C34.934,12.499 34.883,12.516 34.829,12.516 C34.810,12.516 34.791,12.515 34.772,12.509 L33.502,12.197 C33.395,12.171 33.319,12.073 33.319,11.963 L33.319,9.987 C33.319,9.911 33.354,9.839 33.415,9.794 C33.475,9.748 33.554,9.733 33.627,9.754 L34.895,10.118 C34.999,10.148 35.070,10.243 35.070,10.351 L35.070,12.274 ZM37.414,31.109 C37.414,31.227 37.329,31.327 37.213,31.347 L36.071,31.542 C36.058,31.543 36.044,31.544 36.031,31.544 C35.975,31.544 35.920,31.525 35.875,31.487 C35.820,31.442 35.789,31.374 35.789,31.304 L35.789,29.430 C35.789,29.308 35.880,29.206 36.000,29.190 L37.141,29.044 C37.210,29.035 37.279,29.056 37.331,29.103 C37.384,29.149 37.413,29.215 37.413,29.283 L37.413,31.109 L37.414,31.109 ZM37.414,27.457 C37.414,27.583 37.319,27.688 37.194,27.699 L36.053,27.797 C36.045,27.798 36.038,27.798 36.032,27.798 C35.972,27.798 35.913,27.776 35.869,27.735 C35.819,27.689 35.790,27.625 35.790,27.557 L35.790,25.684 C35.790,25.554 35.892,25.448 36.021,25.443 L37.163,25.391 C37.228,25.387 37.293,25.412 37.339,25.457 C37.388,25.503 37.414,25.566 37.414,25.632 L37.414,27.457 ZM37.414,23.807 C37.414,23.939 37.306,24.048 37.173,24.048 L36.032,24.053 L36.031,24.053 C35.968,24.053 35.906,24.027 35.862,23.982 C35.816,23.936 35.790,23.875 35.790,23.811 L35.790,21.937 C35.790,21.870 35.817,21.807 35.864,21.762 C35.911,21.717 35.975,21.692 36.040,21.695 L37.182,21.739 C37.312,21.744 37.414,21.850 37.414,21.980 L37.414,23.807 L37.414,23.807 ZM37.414,20.154 C37.414,20.221 37.387,20.286 37.337,20.330 C37.292,20.372 37.233,20.395 37.172,20.395 C37.166,20.395 37.160,20.394 37.154,20.394 L36.012,20.304 C35.887,20.293 35.790,20.188 35.790,20.063 L35.790,18.189 C35.790,18.120 35.820,18.054 35.872,18.008 C35.924,17.962 35.993,17.941 36.061,17.950 L37.202,18.088 C37.323,18.103 37.414,18.205 37.414,18.327 L37.414,20.154 L37.414,20.154 ZM37.414,16.502 C37.414,16.573 37.383,16.640 37.329,16.686 C37.285,16.724 37.230,16.743 37.172,16.743 C37.159,16.743 37.148,16.743 37.134,16.741 L35.993,16.555 C35.876,16.536 35.789,16.435 35.789,16.317 L35.789,14.443 C35.789,14.370 35.822,14.301 35.878,14.256 C35.934,14.210 36.008,14.192 36.079,14.206 L37.221,14.439 C37.333,14.462 37.414,14.562 37.414,14.676 L37.414,16.502 L37.414,16.502 ZM37.414,12.850 C37.414,12.924 37.380,12.994 37.321,13.041 C37.279,13.074 37.226,13.092 37.172,13.092 C37.154,13.092 37.134,13.090 37.114,13.085 L35.974,12.805 C35.866,12.779 35.790,12.681 35.790,12.570 L35.790,10.697 C35.790,10.621 35.826,10.550 35.887,10.504 C35.946,10.457 36.025,10.444 36.097,10.465 L37.239,10.793 C37.342,10.822 37.413,10.917 37.413,11.025 L37.413,12.850 L37.414,12.850 ZM39.533,30.750 C39.533,30.867 39.447,30.968 39.331,30.988 L38.299,31.163 C38.284,31.165 38.272,31.166 38.259,31.166 C38.201,31.166 38.146,31.147 38.102,31.110 C38.048,31.063 38.017,30.996 38.017,30.926 L38.017,29.144 C38.017,29.023 38.107,28.921 38.227,28.905 L39.260,28.773 C39.328,28.765 39.397,28.786 39.450,28.832 C39.502,28.876 39.532,28.943 39.532,29.013 L39.532,30.750 L39.533,30.750 ZM39.533,27.274 C39.533,27.400 39.437,27.503 39.312,27.515 L38.279,27.604 C38.273,27.605 38.266,27.605 38.259,27.605 C38.200,27.605 38.141,27.583 38.096,27.542 C38.046,27.496 38.018,27.432 38.018,27.364 L38.018,25.583 C38.018,25.453 38.118,25.347 38.248,25.342 L39.281,25.295 C39.345,25.291 39.411,25.316 39.458,25.361 C39.506,25.407 39.533,25.470 39.533,25.536 L39.533,27.274 ZM39.533,23.798 C39.533,23.932 39.425,24.040 39.292,24.041 L38.259,24.045 C38.259,24.045 38.259,24.045 38.259,24.045 C38.195,24.045 38.133,24.019 38.088,23.974 C38.043,23.928 38.018,23.867 38.018,23.803 L38.018,22.024 C38.018,21.957 38.044,21.894 38.092,21.848 C38.139,21.802 38.201,21.778 38.267,21.781 L39.301,21.820 C39.430,21.826 39.533,21.932 39.533,22.062 L39.533,23.798 L39.533,23.798 ZM39.533,20.323 C39.533,20.390 39.504,20.454 39.455,20.500 C39.410,20.541 39.352,20.564 39.291,20.564 C39.285,20.564 39.278,20.564 39.272,20.563 L38.240,20.481 C38.114,20.470 38.018,20.366 38.018,20.240 L38.018,18.458 C38.018,18.390 38.047,18.324 38.099,18.278 C38.150,18.232 38.219,18.211 38.288,18.219 L39.320,18.344 C39.442,18.360 39.533,18.462 39.533,18.584 L39.533,20.323 ZM39.533,16.848 C39.533,16.918 39.502,16.985 39.447,17.030 C39.403,17.068 39.348,17.088 39.291,17.088 C39.278,17.088 39.265,17.087 39.253,17.085 L38.219,16.917 C38.102,16.898 38.018,16.796 38.018,16.679 L38.018,14.897 C38.018,14.825 38.050,14.758 38.107,14.711 C38.163,14.666 38.237,14.648 38.308,14.661 L39.340,14.872 C39.452,14.894 39.534,14.994 39.534,15.108 L39.534,16.848 L39.533,16.848 ZM39.533,13.371 C39.533,13.445 39.499,13.515 39.440,13.561 C39.397,13.595 39.345,13.613 39.291,13.613 C39.272,13.613 39.253,13.611 39.234,13.606 L38.201,13.352 C38.093,13.326 38.018,13.229 38.018,13.117 L38.018,11.337 C38.018,11.261 38.053,11.190 38.113,11.144 C38.174,11.098 38.252,11.084 38.325,11.105 L39.357,11.401 C39.460,11.431 39.532,11.526 39.532,11.633 L39.532,13.371 L39.533,13.371 Z" class="building-small"/>
</svg>
